<?xml version="1.0" encoding="UTF-8"?> <!-- Generator: Adobe Illustrator 19.2.1, SVG Export Plug-In . SVG Version: 6.00 Build 0) --> <svg xmlns="http://www.w3.org/2000/svg" xmlns:xlink="http://www.w3.org/1999/xlink" id="Layer_1" x="0px" y="0px" width="1231.4px" height="1024px" viewBox="0 0 1231.4 1024" style="enable-background:new 0 0 1231.4 1024;" xml:space="preserve"> <style type="text/css"> .st0{fill:#F9AE00;} </style> <g> <path d="M144.8,1000.3h43.5l10.1-17.5h-53.6V1000.3L144.8,1000.3z M484.9,983.4h-33.8v-17.2h33.8c5.5,0,9.4,1.3,9.4,8.4 C494.3,980.5,491.7,983.4,484.9,983.4L484.9,983.4z M451.1,937H482c4.5,0,6.5,2.3,6.5,7.1s-2.9,7.1-6.5,7.1h-30.8V937L451.1,937z M498.2,952.9c5.2-2.3,9.4-5.5,9.4-14.3c0-16.6-14-18.5-23.7-18.5H432v80.2h52.9c24.3,0,29.2-13.3,29.2-25.6 C514.1,961,506.3,955.5,498.2,952.9L498.2,952.9z M658.2,1000.3h43.5l10.1-17.5h-53.6V1000.3L658.2,1000.3z M144.8,951.3v17.5h61.3 l10.4-17.5H144.8L144.8,951.3z M580.3,983.4h-28.2v-17.9h28.2c3.2,0,8.4,1,8.4,9.1C588.4,981.8,584.2,983.4,580.3,983.4 L580.3,983.4z M581.3,949h-29.2v-28.9h-19.1v80.2h14.9h4.2H581c13,0,26.6-7.1,26.6-26.3C607.6,949.4,590.4,949,581.3,949L581.3,949 z M617.6,1000.3h19.1v-80.2h-19.1V1000.3L617.6,1000.3z M257.7,920.1l-46.1,80.2h22.7l30.2-52.9l30.5,52.9h23.7l-46.1-80.2H257.7 L257.7,920.1z M367.4,983.8c-18.5,0-26.3-10.7-26.3-23.7c0-14.3,9.1-24,26.3-24c19.8,0,26.3,9.7,26.3,24 C393.7,977.3,380.7,983.8,367.4,983.8L367.4,983.8z M367.4,918.2c-32.1,0-47.4,19.8-47.4,41.5c0,23,14.9,41.5,47.4,41.5 c14.3,0,47.1-6.5,47.1-41.5C414.5,937,399.9,918.2,367.4,918.2L367.4,918.2z M34.4,982.8l30.2-52.9l30.5,52.9H34.4L34.4,982.8z M73.4,902.6H57.8l-46.1,80.2H0v41.2h18.2v-23.7h94.1v23.7h18.2v-41.2h-11.7L73.4,902.6L73.4,902.6z M234,920.1h-89.3v17.5h79.2 L234,920.1L234,920.1z M658.2,951.3v17.5h61.3l10.4-17.5H658.2L658.2,951.3z M747.8,920.1h-89.6v17.5h79.2L747.8,920.1L747.8,920.1 z M1214.2,920.1l-45.4,52.3v-52.3h-19.1v80.2h16.2l46.4-52.6v52.6h19.1v-80.2H1214.2L1214.2,920.1z M771.5,920.1l-46.1,80.2h22.7 l30.2-52.9l30.5,52.9h23.7l-46.1-80.2H771.5L771.5,920.1z M1005.2,951.3H963v-31.2h-19.1v80.2H963v-31.5h42.2v31.5h19.1v-80.2 h-19.1V951.3L1005.2,951.3z M1065.5,972.4v-52.3h-19.1v80.2h16.2l46.4-52.6v52.6h19.1v-80.2h-16.9L1065.5,972.4L1065.5,972.4z M859.8,971.7v-51.6h-19.1v80.2h16.2l46.4-52.3v52.3h19.1v-80.2h-16.2L859.8,971.7L859.8,971.7z"></path> <path class="st0" d="M685.8,663.7L323.3,506.6L246.3,640l408.3,78.5L685.8,663.7L685.8,663.7z M635.5,819.5h120.7l106.1-183.7 l106.1,183.7h120.7L862.7,426.8L635.5,819.5L635.5,819.5z M228.2,671.2l-85.7,148h453.4l40.2-69.5L228.2,671.2L228.2,671.2z M842.6,392.7L615.7,0L530,148.3l272,314.2L842.6,392.7L842.6,392.7z M784.1,493.7L511.8,179.5l-76.9,133.4l317.4,235.6 L784.1,493.7L784.1,493.7z M735.1,578.4L417.7,342.7l-77.6,134.4L703,634.2L735.1,578.4L735.1,578.4z"></path> </g> </svg> 